# xmcd CD database file
#
# Track frame offsets:
#	150
#	16921
#	33672
#
# Disc length: 670 seconds
#
# Revision: 0
# Processed by: cddbd v1.5.1PL2 Copyright (c) Steve Scherf et al.
# Submitted via: CDex 1.51
#
DISCID=1b029c03
DTITLE=Sarah Geronimo - Can This Be Love
DYEAR=2005
DGENRE=Ethnic
TTITLE0=Can this be love (Soundtrack version)
TTITLE1=Can this be love (Acorstic version)
TTITLE2=Can this be love (Minus one)
EXTD=YEAR: 2005
EXTT0=
EXTT1=
EXTT2=
PLAYORDER=
